<svg width="17" height="16" viewBox="0 0 17 16" fill="none" xmlns="http://www.w3.org/2000/svg">
<g clip-path="url(#clip0_10_237)">
<path d="M16.7142 2.70859V13.3087C16.7142 15.0971 15.77 16 13.8635 16H2.85076C0.953284 16 0 15.1058 0 13.3087V2.70859C0 0.91153 0.953284 0.017334 2.85076 0.017334H13.8635C15.77 0.017334 16.7142 0.920206 16.7142 2.70859ZM2.24248 8.00433C2.24248 8.87245 4.79365 11.6679 8.36163 11.6679C11.9659 11.6679 14.4717 8.87245 14.4717 8.00433C14.4717 7.12749 11.9569 4.33203 8.36163 4.33203C4.76641 4.33203 2.24248 7.12749 2.24248 8.00433ZM10.8765 8.00433C10.8765 9.30651 9.75069 10.4004 8.36163 10.4004C6.96352 10.4004 5.84679 9.30651 5.84679 8.00433C5.83772 6.6587 6.96352 5.59953 8.36163 5.59953C9.75069 5.59953 10.8765 6.6587 10.8765 8.00433ZM7.25401 8.00433C7.25401 8.55994 7.77153 9.05475 8.37979 9.05475C8.96084 9.05475 9.46925 8.55994 9.46925 8.00433C9.46925 7.44 8.96084 6.94519 8.37979 6.94519C7.77153 6.94519 7.25401 7.44 7.25401 8.00433Z" fill="#6E6E73"/>
</g>
<defs>
<clipPath id="clip0_10_237">
<rect width="16.9412" height="16" fill="white"/>
</clipPath>
</defs>
</svg>
